<svg id="svg" version="1.1" xmlns="http://www.w3.org/2000/svg" xmlns:xlink="http://www.w3.org/1999/xlink" width="400" height="400" viewBox="0, 0, 400,400"><g id="svgg"><path id="path0" d="M20.600 9.600 C 20.464 9.820,20.031 10.000,19.638 10.000 C 18.726 10.000,16.632 11.039,15.993 11.808 C 15.723 12.134,15.309 12.400,15.073 12.400 C 14.479 12.400,12.400 14.443,12.400 15.026 C 12.400 15.288,12.134 15.723,11.808 15.993 C 11.039 16.632,10.000 18.726,10.000 19.638 C 10.000 20.031,9.820 20.464,9.600 20.600 C 9.380 20.736,9.200 21.456,9.200 22.200 C 9.200 22.944,9.020 23.664,8.800 23.800 C 8.580 23.936,8.400 24.566,8.400 25.200 C 8.400 25.834,8.580 26.464,8.800 26.600 C 9.066 26.764,9.200 86.045,9.200 203.145 L 9.200 379.443 10.219 381.489 C 10.780 382.614,11.500 383.751,11.819 384.016 C 12.139 384.281,12.400 384.712,12.400 384.974 C 12.400 385.557,14.479 387.600,15.073 387.600 C 15.309 387.600,15.719 387.861,15.984 388.181 C 16.249 388.500,17.386 389.220,18.511 389.781 L 20.557 390.800 199.855 390.800 C 318.955 390.800,379.236 390.666,379.400 390.400 C 379.536 390.180,379.969 390.000,380.362 390.000 C 381.274 390.000,383.368 388.961,384.007 388.192 C 384.277 387.866,384.712 387.600,384.974 387.600 C 385.557 387.600,387.600 385.521,387.600 384.927 C 387.600 384.691,387.861 384.281,388.181 384.016 C 388.500 383.751,389.220 382.614,389.781 381.489 L 390.800 379.443 390.800 200.145 C 390.800 81.045,390.666 20.764,390.400 20.600 C 390.180 20.464,390.000 20.031,390.000 19.638 C 390.000 18.594,388.970 16.699,387.810 15.610 C 387.255 15.088,386.800 14.417,386.800 14.120 C 386.800 13.823,386.395 13.425,385.900 13.236 C 385.405 13.047,384.656 12.510,384.235 12.043 C 383.328 11.036,381.365 10.000,380.362 10.000 C 379.969 10.000,379.536 9.820,379.400 9.600 C 379.057 9.045,20.943 9.045,20.600 9.600 M374.200 16.000 C 374.336 16.220,375.129 16.400,375.962 16.400 C 379.306 16.400,383.600 20.431,383.600 23.571 C 383.600 24.221,383.780 24.864,384.000 25.000 C 384.266 25.164,384.400 83.796,384.400 199.600 C 384.400 315.404,384.266 374.036,384.000 374.200 C 383.780 374.336,383.600 375.159,383.600 376.029 C 383.600 379.561,379.525 383.600,375.962 383.600 C 375.129 383.600,374.336 383.780,374.200 384.000 C 373.857 384.555,25.343 384.555,25.000 384.000 C 24.864 383.780,24.221 383.600,23.571 383.600 C 20.431 383.600,16.400 379.306,16.400 375.962 C 16.400 375.129,16.220 374.336,16.000 374.200 C 15.445 373.857,15.445 26.143,16.000 25.800 C 16.220 25.664,16.400 24.841,16.400 23.971 C 16.400 20.439,20.475 16.400,24.038 16.400 C 24.871 16.400,25.664 16.220,25.800 16.000 C 26.143 15.445,373.857 15.445,374.200 16.000 M149.000 112.000 C 148.864 112.220,147.964 112.400,147.000 112.400 C 146.036 112.400,145.136 112.580,145.000 112.800 C 144.864 113.020,144.370 113.200,143.903 113.200 C 141.469 113.200,135.974 115.890,134.450 117.828 C 132.741 119.999,133.214 121.645,136.551 125.149 C 141.029 129.849,141.033 129.698,136.070 140.600 C 133.682 145.844,108.432 195.911,105.003 202.200 C 104.283 203.520,102.123 207.660,100.202 211.400 C 98.281 215.140,96.576 218.380,96.414 218.600 C 96.252 218.820,94.672 221.790,92.902 225.200 C 91.133 228.610,89.036 232.542,88.243 233.938 C 87.449 235.335,86.800 236.553,86.800 236.646 C 86.800 236.740,86.378 237.487,85.863 238.308 C 85.348 239.129,84.330 240.880,83.601 242.200 C 82.872 243.520,81.449 245.902,80.438 247.493 C 79.427 249.084,77.895 251.514,77.033 252.893 C 71.509 261.727,66.878 268.681,63.818 272.732 C 57.572 281.002,57.272 284.001,62.428 286.614 C 64.531 287.680,76.807 288.160,77.400 287.200 C 77.536 286.980,78.436 286.800,79.400 286.800 C 80.364 286.800,81.264 286.620,81.400 286.400 C 81.536 286.180,82.076 286.000,82.600 286.000 C 83.124 286.000,83.664 285.820,83.800 285.600 C 83.936 285.380,84.399 285.200,84.829 285.200 C 85.259 285.200,85.923 285.036,86.305 284.836 C 86.687 284.635,88.779 283.616,90.954 282.571 C 93.129 281.526,95.695 280.070,96.657 279.335 C 97.620 278.601,98.510 278.000,98.636 278.000 C 98.761 278.000,99.679 277.325,100.676 276.500 C 104.439 273.384,106.563 271.333,108.156 269.280 C 111.217 265.334,113.967 261.402,113.984 260.949 C 113.993 260.701,114.273 260.271,114.607 259.994 C 114.941 259.717,115.513 258.840,115.878 258.045 C 116.243 257.250,116.866 256.128,117.262 255.551 C 119.039 252.961,129.816 231.491,133.199 223.800 C 133.586 222.920,134.666 220.580,135.600 218.600 C 136.534 216.620,137.635 214.235,138.049 213.300 C 138.462 212.365,139.160 210.790,139.600 209.800 C 140.040 208.810,140.760 207.190,141.200 206.200 C 141.640 205.210,142.360 203.590,142.800 202.600 C 143.240 201.610,143.960 199.990,144.400 199.000 C 144.840 198.010,145.560 196.390,146.000 195.400 C 151.237 183.616,150.707 183.805,151.606 193.400 C 152.426 202.153,153.183 207.893,155.035 219.400 C 159.584 247.669,167.816 269.184,178.435 280.555 C 181.285 283.606,185.750 286.800,187.167 286.800 C 187.599 286.800,188.064 286.980,188.200 287.200 C 188.343 287.432,190.530 287.600,193.400 287.600 C 196.270 287.600,198.457 287.432,198.600 287.200 C 198.736 286.980,199.166 286.800,199.556 286.800 C 201.486 286.800,209.200 280.940,209.200 279.473 C 209.200 279.281,209.585 278.583,210.056 277.922 C 211.609 275.740,222.427 254.202,229.202 239.800 C 231.084 235.800,245.695 206.503,248.706 200.690 C 249.935 198.319,251.062 196.519,251.211 196.690 C 251.360 196.860,251.695 202.270,251.954 208.711 C 253.442 245.641,257.397 259.130,270.788 272.947 C 277.023 279.381,285.792 285.191,289.276 285.198 C 289.868 285.199,290.452 285.361,290.574 285.558 C 291.138 286.470,308.495 287.265,309.342 286.418 C 309.572 286.188,310.266 286.000,310.885 286.000 C 311.504 286.000,312.323 285.841,312.705 285.647 C 313.087 285.452,313.940 285.071,314.600 284.800 C 322.507 281.549,334.000 270.855,334.000 266.749 C 334.000 266.331,334.223 265.632,334.496 265.195 C 334.891 264.562,334.891 264.238,334.496 263.605 C 334.223 263.168,334.000 262.534,334.000 262.196 C 334.000 261.587,329.053 255.494,327.045 253.630 C 326.470 253.097,326.000 252.456,326.000 252.205 C 326.000 251.955,325.460 251.232,324.800 250.600 C 324.140 249.968,323.600 249.216,323.600 248.929 C 323.600 248.642,323.240 248.182,322.800 247.907 C 322.360 247.632,322.000 247.209,322.000 246.965 C 322.000 246.292,320.808 244.049,320.268 243.705 C 319.830 243.426,318.330 240.554,317.600 238.600 C 317.247 237.654,315.665 234.097,315.156 233.105 C 314.960 232.723,314.800 232.059,314.800 231.629 C 314.800 231.199,314.620 230.736,314.400 230.600 C 314.180 230.464,314.000 229.924,314.000 229.400 C 314.000 228.876,313.820 228.336,313.600 228.200 C 313.380 228.064,313.200 227.434,313.200 226.800 C 313.200 226.166,313.020 225.536,312.800 225.400 C 312.580 225.264,312.400 224.634,312.400 224.000 C 312.400 223.366,312.220 222.736,312.000 222.600 C 311.780 222.464,311.600 221.744,311.600 221.000 C 311.600 220.256,311.420 219.536,311.200 219.400 C 310.980 219.264,310.800 218.544,310.800 217.800 C 310.800 217.056,310.620 216.336,310.400 216.200 C 310.180 216.064,310.000 215.254,310.000 214.400 C 310.000 213.546,309.820 212.736,309.600 212.600 C 309.380 212.464,309.200 211.474,309.200 210.400 C 309.200 209.326,309.020 208.336,308.800 208.200 C 308.580 208.064,308.400 206.984,308.400 205.800 C 308.400 204.616,308.220 203.536,308.000 203.400 C 307.780 203.264,307.600 201.824,307.600 200.200 C 307.600 198.576,307.420 197.136,307.200 197.000 C 306.979 196.864,306.800 195.070,306.800 193.000 C 306.800 190.930,306.621 189.136,306.400 189.000 C 306.161 188.853,306.000 186.270,306.000 182.600 C 306.000 178.930,305.839 176.347,305.600 176.200 C 305.050 175.860,305.050 132.940,305.600 132.600 C 306.139 132.267,306.139 117.333,305.600 117.000 C 305.380 116.864,305.200 116.375,305.200 115.914 C 305.200 114.757,303.324 112.400,302.403 112.400 C 301.987 112.400,301.536 112.220,301.400 112.000 C 301.245 111.749,297.004 111.600,290.000 111.600 C 282.996 111.600,278.755 111.749,278.600 112.000 C 278.464 112.220,277.431 112.400,276.305 112.400 C 275.178 112.400,273.704 112.568,273.028 112.773 C 272.353 112.978,270.990 113.359,270.000 113.618 C 267.929 114.162,267.405 114.351,264.400 115.636 C 254.685 119.791,250.853 125.654,230.758 167.117 C 229.021 170.701,227.600 173.729,227.600 173.844 C 227.600 173.960,226.520 176.309,225.200 179.065 C 223.880 181.821,222.800 184.152,222.800 184.246 C 222.800 184.340,222.080 185.961,221.200 187.848 C 220.320 189.735,219.600 191.358,219.600 191.455 C 219.600 191.551,218.700 193.524,217.600 195.839 C 216.500 198.154,215.600 200.131,215.600 200.232 C 215.600 200.334,214.880 201.961,214.000 203.848 C 213.120 205.735,212.400 207.388,212.400 207.522 C 212.400 208.122,210.223 212.400,209.917 212.400 C 209.729 212.400,209.477 212.085,209.358 211.700 C 209.239 211.315,208.975 210.687,208.771 210.305 C 208.567 209.923,208.400 208.989,208.400 208.229 C 208.400 207.469,208.220 206.736,208.000 206.600 C 207.780 206.464,207.600 205.564,207.600 204.600 C 207.600 203.636,207.420 202.736,207.200 202.600 C 206.980 202.464,206.800 201.384,206.800 200.200 C 206.800 199.016,206.620 197.936,206.400 197.800 C 206.180 197.664,206.000 196.584,206.000 195.400 C 206.000 194.216,205.820 193.136,205.600 193.000 C 205.380 192.864,205.200 191.604,205.200 190.200 C 205.200 188.796,205.020 187.536,204.800 187.400 C 204.580 187.264,204.400 186.184,204.400 185.000 C 204.400 183.816,204.220 182.736,204.000 182.600 C 203.780 182.464,203.600 181.204,203.600 179.800 C 203.600 178.396,203.420 177.136,203.200 177.000 C 202.980 176.864,202.800 175.604,202.800 174.200 C 202.800 172.796,202.620 171.536,202.400 171.400 C 202.180 171.264,202.000 170.184,202.000 169.000 C 202.000 167.816,201.820 166.736,201.600 166.600 C 201.380 166.464,201.200 165.474,201.200 164.400 C 201.200 163.326,201.020 162.336,200.800 162.200 C 200.580 162.064,200.400 161.074,200.400 160.000 C 200.400 158.926,200.220 157.936,200.000 157.800 C 199.780 157.664,199.600 156.764,199.600 155.800 C 199.600 154.836,199.420 153.936,199.200 153.800 C 198.980 153.664,198.800 152.764,198.800 151.800 C 198.800 150.836,198.620 149.936,198.400 149.800 C 198.180 149.664,198.000 148.854,198.000 148.000 C 198.000 147.146,197.820 146.336,197.600 146.200 C 197.380 146.064,197.200 145.254,197.200 144.400 C 197.200 143.546,197.020 142.736,196.800 142.600 C 196.580 142.464,196.400 141.834,196.400 141.200 C 196.400 140.566,196.220 139.936,196.000 139.800 C 195.780 139.664,195.600 139.034,195.600 138.400 C 195.600 137.766,195.420 137.136,195.200 137.000 C 194.980 136.864,194.800 136.234,194.800 135.600 C 194.800 134.966,194.620 134.336,194.400 134.200 C 194.180 134.064,194.000 133.601,194.000 133.171 C 194.000 132.741,193.841 132.077,193.647 131.695 C 193.452 131.313,193.118 130.550,192.903 130.000 C 192.689 129.450,192.128 128.218,191.657 127.262 C 191.186 126.306,190.796 125.316,190.791 125.062 C 190.786 124.808,190.430 124.150,190.000 123.600 C 189.570 123.050,189.214 122.365,189.209 122.079 C 189.175 120.090,181.296 114.000,178.756 114.000 C 178.366 114.000,177.936 113.820,177.800 113.600 C 177.664 113.380,177.034 113.200,176.400 113.200 C 175.766 113.200,175.136 113.020,175.000 112.800 C 174.864 112.580,173.964 112.400,173.000 112.400 C 172.036 112.400,171.136 112.220,171.000 112.000 C 170.845 111.749,166.737 111.600,160.000 111.600 C 153.263 111.600,149.155 111.749,149.000 112.000 " stroke="none" fill="#fcfcfc" fill-rule="evenodd"></path><path id="path1" d="" stroke="none" fill="#100fcfc" fill-rule="evenodd"></path><path id="path2" d="" stroke="none" fill="#100fcfc" fill-rule="evenodd"></path><path id="path3" d="" stroke="none" fill="#100fcfc" fill-rule="evenodd"></path><path id="path4" d="" stroke="none" fill="#100fcfc" fill-rule="evenodd"></path></g></svg>